<svg id="visual" viewBox="0 0 960 540" width="960" height="540" xmlns="http://www.w3.org/2000/svg" xmlns:xlink="http://www.w3.org/1999/xlink" version="1.1"><rect x="0" y="0" width="960" height="540" fill="#ffe4f4"></rect><defs><linearGradient id="grad1_0" x1="43.8%" y1="0%" x2="100%" y2="100%"><stop offset="14.444444444444446%" stop-color="#ffe4f4" stop-opacity="1"></stop><stop offset="85.55555555555554%" stop-color="#ffe4f4" stop-opacity="1"></stop></linearGradient></defs><defs><linearGradient id="grad2_0" x1="0%" y1="0%" x2="56.3%" y2="100%"><stop offset="14.444444444444446%" stop-color="#ffe4f4" stop-opacity="1"></stop><stop offset="85.55555555555554%" stop-color="#ffe4f4" stop-opacity="1"></stop></linearGradient></defs><g transform="translate(960, 0)"><path d="M0 351C-15.3 345.7 -30.5 340.4 -43.7 332.1C-56.9 323.9 -68 312.7 -84.1 313.9C-100.2 315.1 -121.4 328.7 -133.2 321.5C-144.9 314.3 -147.2 286.2 -160 277.1C-172.8 268 -196.1 277.9 -209.4 272.9C-222.7 268 -226.1 248.2 -236.9 236.9C-247.6 225.5 -265.8 222.6 -278.5 213.7C-291.2 204.8 -298.4 190 -303.1 175C-307.8 160 -310 144.8 -316 130.9C-322 116.9 -331.8 104.1 -335.2 89.8C-338.6 75.5 -335.5 59.6 -337.1 44.4C-338.7 29.2 -344.8 14.6 -351 0L0 0Z" fill="#a71b62"></path></g><g transform="translate(0, 540)"><path d="M0 -351C12 -321.5 23.9 -291.9 37.2 -282.6C50.5 -273.2 65 -284.1 75.3 -281.1C85.6 -278.1 91.8 -261.2 111.4 -268.8C131 -276.5 164 -308.7 175.5 -304C187 -299.2 176.9 -257.6 188.1 -245.1C199.3 -232.7 231.9 -249.4 241.8 -241.8C251.8 -234.2 239.1 -202.3 241.2 -185.1C243.3 -167.9 260.3 -165.4 276.3 -159.5C292.3 -153.6 307.3 -144.1 318.7 -132C330.2 -119.9 337.9 -105.2 333.2 -89.3C328.6 -73.4 311.4 -56.2 312.3 -41.1C313.2 -26 332.1 -13 351 0L0 0Z" fill="#a71b62"></path></g></svg>