<svg id="visual" viewBox="0 0 540 960" width="540" height="960" xmlns="http://www.w3.org/2000/svg" xmlns:xlink="http://www.w3.org/1999/xlink" version="1.1"><rect x="0" y="0" width="540" height="960" fill="#f8f9fa"></rect><path d="M0 564L68 523L135 583L203 543L270 648L338 550L405 637L473 518L540 529L540 961L473 961L405 961L338 961L270 961L203 961L135 961L68 961L0 961Z" fill="#a71b62"></path><path d="M0 681L68 644L135 624L203 669L270 659L338 698L405 675L473 724L540 689L540 961L473 961L405 961L338 961L270 961L203 961L135 961L68 961L0 961Z" fill="#ad396d"></path><path d="M0 726L68 747L135 672L203 716L270 755L338 725L405 785L473 774L540 768L540 961L473 961L405 961L338 961L270 961L203 961L135 961L68 961L0 961Z" fill="#b25079"></path><path d="M0 768L68 792L135 806L203 852L270 848L338 822L405 806L473 754L540 868L540 961L473 961L405 961L338 961L270 961L203 961L135 961L68 961L0 961Z" fill="#b66484"></path><path d="M0 849L68 895L135 917L203 833L270 876L338 861L405 898L473 830L540 906L540 961L473 961L405 961L338 961L270 961L203 961L135 961L68 961L0 961Z" fill="#ba7790"></path></svg>