<svg id="visual" viewBox="0 0 900 600" width="900" height="600" xmlns="http://www.w3.org/2000/svg" xmlns:xlink="http://www.w3.org/1999/xlink" version="1.1"><rect x="0" y="0" width="900" height="600" fill="#f8f9fa"></rect><path d="M0 352L113 327L225 364L338 339L450 405L563 343L675 398L788 323L900 330L900 601L788 601L675 601L563 601L450 601L338 601L225 601L113 601L0 601Z" fill="#a71b62"></path><path d="M0 425L113 402L225 390L338 418L450 411L563 436L675 422L788 452L900 430L900 601L788 601L675 601L563 601L450 601L338 601L225 601L113 601L0 601Z" fill="#ad396d"></path><path d="M0 453L113 467L225 420L338 447L450 471L563 453L675 490L788 483L900 480L900 601L788 601L675 601L563 601L450 601L338 601L225 601L113 601L0 601Z" fill="#b25079"></path><path d="M0 480L113 495L225 503L338 532L450 530L563 513L675 503L788 471L900 542L900 601L788 601L675 601L563 601L450 601L338 601L225 601L113 601L0 601Z" fill="#b66484"></path><path d="M0 530L113 559L225 573L338 520L450 547L563 538L675 561L788 518L900 566L900 601L788 601L675 601L563 601L450 601L338 601L225 601L113 601L0 601Z" fill="#ba7790"></path></svg>