<svg id="visual" viewBox="0 0 540 960" width="540" height="960" xmlns="http://www.w3.org/2000/svg" xmlns:xlink="http://www.w3.org/1999/xlink" version="1.1"><rect x="0" y="0" width="540" height="960" fill="#ffe4f4"></rect><defs><linearGradient id="grad1_0" x1="0%" y1="0%" x2="100%" y2="100%"><stop offset="30%" stop-color="#ffe4f4" stop-opacity="1"></stop><stop offset="70%" stop-color="#ffe4f4" stop-opacity="1"></stop></linearGradient></defs><defs><linearGradient id="grad2_0" x1="0%" y1="0%" x2="100%" y2="100%"><stop offset="30%" stop-color="#ffe4f4" stop-opacity="1"></stop><stop offset="70%" stop-color="#ffe4f4" stop-opacity="1"></stop></linearGradient></defs><g transform="translate(540, 0)"><path d="M0 351C-13.6 331.3 -27.2 311.7 -39.7 301.4C-52.2 291.1 -63.6 290.2 -78.9 294.6C-94.3 299.1 -113.7 308.9 -124.8 301.2C-135.8 293.5 -138.4 268.3 -148.5 257.2C-158.6 246.1 -176 249.2 -185.7 242C-195.3 234.8 -197.2 217.3 -212.8 212.8C-228.5 208.3 -258.1 216.8 -276.9 212.5C-295.7 208.1 -303.7 191.1 -294.4 170C-285.1 148.9 -258.5 123.9 -270.7 112.1C-282.9 100.4 -334 101.8 -339 90.8C-344.1 79.9 -303.1 56.4 -297.4 39.2C-291.8 21.9 -321.4 11 -351 0L0 0Z" fill="#a71b62"></path></g><g transform="translate(0, 960)"><path d="M0 -351C10.4 -314.4 20.9 -277.8 37.1 -281.6C53.3 -285.3 75.2 -329.4 90.8 -339C106.5 -348.7 115.8 -324 130.5 -315C145.2 -306.1 165.2 -312.9 175 -303.1C184.8 -293.3 184.4 -266.8 197.2 -257C210.1 -247.3 236.2 -254.3 241.8 -241.8C247.5 -229.4 232.8 -197.5 236.4 -181.4C240.1 -165.3 262.1 -164.9 267.6 -154.5C273.1 -144.1 262 -123.8 268.8 -111.4C275.7 -98.9 300.6 -94.4 315.9 -84.6C331.1 -74.9 336.8 -59.9 341.1 -44.9C345.3 -29.9 348.2 -15 351 0L0 0Z" fill="#a71b62"></path></g></svg>